<svg width="130" height="30" viewBox="0 0 130 30" xmlns="http://www.w3.org/2000/svg"
    class="fill-current w-full" fill='#ededed'>
    <path
        d="M94.4179 26.4763C89.2465 26.4763 86.6841 22.6467 86.6841 18.55H105.459C105.459 10.49 101.825 5.63623 94.3713 5.63623C87.4296 5.63623 82.957 10.0447 82.957 17.6148C82.957 24.7397 87.3364 29.5934 94.5576 29.5934C100.474 29.5934 103.875 26.2092 105.087 21.9788H101.36C100.94 23.5373 99.1699 26.4763 94.4179 26.4763ZM94.3713 8.75334C98.8438 8.75334 101.732 11.7814 101.732 15.4329H86.6841C86.6841 11.7814 89.8988 8.75334 94.3713 8.75334Z"></path>
    <path
        d="M106.442 6.26001L115.02 17.348L105.65 28.9704H109.98L117.306 19.8H117.399L124.771 28.9704H129.101L119.684 17.348L128.262 6.26001H124.028L117.399 14.8515H117.306L110.772 6.26001H106.442Z"></path>
    <path
        d="M81.3148 9.37676V6.24955H76.656V0.0681152H72.9289V6.24955H69.8184V9.37676H72.9289V23.4037C72.9289 28.0349 75.3515 29.2372 78.5195 29.2372C79.4979 29.2372 80.4762 29.1481 81.3148 28.97V25.8529C78.1468 26.0756 76.656 25.6303 76.656 23.0475V9.37676H81.3148Z"></path>
    <path
        d="M65.2994 5.63623C62.2902 5.63623 60.1087 7.01651 58.7304 9.36708H58.6373V6.25965H54.9102V28.97H58.6373V16.8578C58.6373 12.6916 61.2803 9.54237 65.2994 9.24071C65.9627 9.19093 66.4625 9.24071 66.8488 9.33223H66.942V5.83933C66.5104 5.69816 65.887 5.63623 65.2994 5.63623Z"></path>
    <path
        d="M40.2976 29.5934C33.0297 29.5934 28.6504 24.6951 28.6504 17.6148C28.6504 10.5345 33.0297 5.63623 40.2976 5.63623C47.5188 5.63623 51.8982 10.5345 51.8982 17.6148C51.8982 24.6951 47.5188 29.5934 40.2976 29.5934ZM40.2976 26.4763C45.6087 26.4763 48.1711 22.4686 48.1711 17.6148C48.1711 12.7611 45.6087 8.75334 40.2976 8.75334C34.9399 8.75334 32.3775 12.7611 32.3775 17.6148C32.3775 22.4686 34.9399 26.4763 40.2976 26.4763Z"></path>
    <path
        d="M22.323 10.2014L22.3081 10.1267C22.0449 8.80357 21.3429 7.17295 19.9762 5.87418C18.6118 4.57745 16.5796 3.60635 13.6435 3.60635C10.196 3.60635 7.75879 5.01416 6.18018 7.12124C4.59881 9.23201 3.87544 12.0502 3.87544 14.869C3.87544 17.7076 4.59886 20.5356 6.18024 22.6513C7.75884 24.7632 10.1961 26.171 13.6435 26.171C19.2665 26.171 22.0639 22.296 22.3067 18.7964L22.3126 18.7106H26.1921L26.1814 18.8117C25.8519 21.9385 24.5333 24.6349 22.3858 26.5499C20.2379 28.4653 17.2669 29.5935 13.6435 29.5935C9.60524 29.5935 6.19199 28.0484 3.7894 25.4322C1.38762 22.8168 0 19.1361 0 14.869C0 10.6215 1.38769 6.95058 3.78946 4.34021C6.19203 1.72898 9.60525 0.183838 13.6435 0.183838C20.854 0.183838 25.4793 4.70204 26.1812 10.0981L26.1946 10.2014H22.323Z"></path>
</svg>